<svg xmlns="http://www.w3.org/2000/svg" viewBox="0 0 616.04 444.18"><defs><style>.cls-1{fill:#2d2d2d;}.cls-2{fill:#0c0c0c;}.cls-3{fill:#424242;}.cls-4{fill:#875839;}.cls-5{fill:#70442e;}.cls-6{fill:#35231b;}</style></defs><title>Recurso 26</title><g id="Capa_2" data-name="Capa 2"><g id="Templates"><polygon class="cls-1" points="307.81 355.45 616.04 177.56 616.04 267.56 307.65 444.18 307.81 355.45"/><polygon class="cls-2" points="0 177.64 307.47 355.37 307.31 444.1 0 266.23 0 177.64"/><path class="cls-3" d="M307.55,0,0,177.71,307.47,356.89,615.38,177.71ZM153.9,177.69l153.45-88.9,154,88.94-153.71,88.8Z"/><line class="cls-1" x1="15.28" y1="223.85" x2="273.24" y2="372.83"/><path d="M25.77,226c-1.32-.74,3.36,2.58.51,1.09,1.73,1.47,6,3.34,8.44,4.82,0,.72-2.48,0,1.65,2.9,5.68,3.69,1.39-.7,6.65,2.27l-3.49-2.22c4.11,1.15,12.29,6.68,18.55,10,4.23,3.31,7.61,7.07,13.77,10.27-.38-.11-2-.76-1.84-.3a18.17,18.17,0,0,0,4.19,2.44c3.5,1.19-.38-1.38,1.09-1.18a42.35,42.35,0,0,1,9,4.63l3.88,3.84c3.94.25,7.94,4.54,14.43,7.62.76,1.49,7.82,4.09,8.58,5.58,2.92,1.66-.68,2.43,1.34,4.39,3.83,2.88-3.07-1.29.77,1.6-4.66-2.28-.21-2.92-6.38-6.12l.13.46c-2.73-1-6.48-4.35-8.64-4.53-6.36-3.89.76-1.06-2-3.54-2.23-.4-9.67-4.38-10.5-3.55l5,2.88c-.82-.44-.32.12-.7,0-2.92-2.94-14.24-4.39-10-5.77.76.21,2.48,1.33,3.18,1.31.13-.81-3.5-2.46-6-4-3-.85-6.74-1.45-10.68-4.24-1.33-1-.25-.92-1.58-1.93-8.91-4.17-7.65-5.56-16.76-10.38C43.2,240.36,36,237,30.94,233c.51,1.08-3.85-1.86-4.94-2.6a25.26,25.26,0,0,0-5.77-4.05c1.32.74.68,0,1.67.39-5.16-2.61-5.55-4-5.51-4.77C20.48,223.8,21.41,223.09,25.77,226Z"/><path d="M127.27,286.28c-1.69.63,8.25,5.28,3,4.05a21.81,21.81,0,0,0,6.34,3.21c-3.25-2.44,1,.32-.61-1.3,11.57,5.87,22.29,12.06,32.61,18.19,7.24,5.37,14.59,8.49,22.52,11.88,4.37,3,.89,2.16-.52,2.2l5.72,3.35-6.23-2.58c-.46.36,2.12,1.89,3.36,3.06l1.69.82c-3.16,1.07-11.46-6.69-17.3-9.22,6.68,3.66-.61-1.3,2.43-.13l-2-1.26c1.86,1,5.84,2.53,10.67,5.15a382.53,382.53,0,0,0-38.17-19.87c.39,0,1.34.36.45-.36-3.87-2.3-6.85-2.44-8.77-3.08l1.92.64c-2.14-1.9-6.52-3.44-9.5-5-2.85-2.39-4.59-4.24-10.2-6.95l.45-.36L120.91,286c1.12.54.79.09.62-.13.39,0,.56.27,1.29.77.68-.54-1-2.79-3.13-4.69a19.7,19.7,0,0,0,2,1.27c-1.79-1.45-8.36-5.91-4.54-4.65C122.9,281.86,121.88,283.39,127.27,286.28Z"/><path d="M100.58,275.07c3.94,2.8-1.47-.19-.83.83L96,273.79C96.19,273.21,99.94,275.32,100.58,275.07Z"/><path d="M216.85,337c.11.63,2.92,2,4.38,3,3.2,1.4,4.22,1.31,8.42,4.06-4.11-.68,2.68,3.61,5.32,6.18-2.25-1.09-6.63-2.63-9.66-5.24.62-.13-2.3-2.12-3.75-3.11-2.7-.73.77,3-8.89-2.27-1.62-1.22-6.12-3.39-5.44-3.93-1.06-.94-2.7-.72-3.7-2.07L203,333l6.18,3a2.86,2.86,0,0,0,1.07.95c-.84-1.13,7,2.67,3.66-.39l-8.14-4.66c-1.8-1.44,1.24-.26,4.22,1.32C214,336.08,213.82,335.85,216.85,337Z"/><polygon points="195.68 326.95 195.35 326.5 202.59 330.43 195.68 326.95"/><path d="M243.52,352.07c-1.52-.59-2.59-1.54-4.1-2.13l.34-1Z"/><path d="M166.47,314.29c-2.36-.27-6.9-3.47-8.87-3.7,1.29.77,1,.31,1.35.36l-2.36-1.71C160,310.46,162.94,312.44,166.47,314.29Z"/><path d="M257.55,360.28c4.82,2.62,6.29,2.18,11.56,5.88,1.07.94-1.74-.41-.11.8a7.11,7.11,0,0,0,3.2,1.41l-.51-.68c1,1.35,5,4.28,2.23,4-6.79-4.29-11.23-4-16.05-8l-.39-1.49-3.37-1.62c-.17-.23.06-.41-1.07-.95-2.47-.9,1.4,1.4,1,1.76l-6.57-3c-.73-.5.79.09.62-.13-2.69-2.17-5.34-1.86-7.41-4.16l4.16,1.72c-4.6-2.8-7.85-5.23-10.94-7.44C243.05,353.86,249.59,354.42,257.55,360.28Z"/><line class="cls-1" x1="13.64" y1="248.62" x2="271.6" y2="397.6"/><path d="M24.13,250.81c-1.32-.75,3.36,2.57.51,1.08,1.73,1.47,6,3.34,8.43,4.82,0,.72-2.47,0,1.66,2.9,5.68,3.69,1.39-.69,6.65,2.27l-3.49-2.21c4.11,1.15,12.29,6.67,18.55,10,4.23,3.3,7.61,7.06,13.77,10.26-.38-.1-2-.76-1.84-.3a18.17,18.17,0,0,0,4.19,2.44c3.5,1.19-.38-1.38,1.09-1.18a42.82,42.82,0,0,1,9,4.63l3.88,3.84c3.94.25,7.94,4.55,14.43,7.63.76,1.48,7.82,4.08,8.58,5.57,2.92,1.66-.68,2.44,1.34,4.4,3.83,2.88-3.07-1.29.77,1.59-4.66-2.28-.21-2.92-6.38-6.12l.13.46c-2.73-1-6.48-4.35-8.64-4.52-6.36-3.9.76-1.07-2-3.54-2.22-.41-9.66-4.39-10.49-3.56l5,2.88c-.83-.44-.32.13-.7,0-2.92-2.94-14.24-4.39-10-5.77.76.22,2.48,1.33,3.18,1.31.13-.81-3.5-2.46-6-4-3-.85-6.74-1.46-10.68-4.25-1.34-1-.25-.92-1.59-1.93-8.9-4.17-7.64-5.55-16.75-10.38-5.09-4-12.25-7.4-17.35-11.44.51,1.09-3.85-1.86-4.94-2.6a25.26,25.26,0,0,0-5.77-4.05c1.32.74.68,0,1.67.39-5.16-2.6-5.55-4.05-5.51-4.77C18.83,248.56,19.77,247.86,24.13,250.81Z"/><path d="M125.63,311c-1.69.63,8.24,5.28,3,4.06a22.14,22.14,0,0,0,6.35,3.2c-3.25-2.43,1,.32-.61-1.3,11.57,5.87,22.29,12.06,32.61,18.2,7.24,5.36,14.59,8.48,22.52,11.88,4.37,3,.89,2.16-.52,2.2l5.72,3.34L188.48,350c-.46.36,2.12,1.89,3.36,3.07l1.68.81c-3.15,1.07-11.45-6.68-17.29-9.22,6.68,3.66-.61-1.3,2.42-.12l-2-1.27c1.85,1,5.84,2.53,10.67,5.15a382.53,382.53,0,0,0-38.17-19.87c.39.05,1.34.36.45-.36-3.87-2.3-6.86-2.44-8.77-3.08l1.91.64c-2.13-1.9-6.51-3.44-9.49-5-2.86-2.39-4.59-4.24-10.21-6.95l.45-.35-4.2-2.76c1.12.55.79.1.62-.13.39.05.56.27,1.29.77.68-.54-1-2.79-3.13-4.69a18.1,18.1,0,0,0,2,1.27c-1.79-1.44-8.36-5.91-4.54-4.64C121.26,306.63,120.24,308.15,125.63,311Z"/><path d="M98.94,299.84c3.93,2.79-1.47-.2-.83.82l-3.76-2.1C94.55,298,98.3,300.08,98.94,299.84Z"/><path d="M215.21,361.79c.11.64,2.92,2,4.38,3,3.2,1.4,4.22,1.32,8.42,4.07-4.11-.69,2.68,3.6,5.32,6.17-2.25-1.08-6.63-2.62-9.66-5.24.62-.13-2.3-2.12-3.75-3.11-2.7-.73.77,3-8.89-2.27-1.62-1.22-6.12-3.39-5.44-3.92-1.06-1-2.7-.73-3.7-2.08l-.51-.68,6.18,3a3,3,0,0,0,1.06.94c-.84-1.12,7,2.67,3.67-.39l-8.14-4.65c-1.8-1.45,1.24-.27,4.22,1.31C212.35,360.84,212.18,360.62,215.21,361.79Z"/><polygon points="194.04 351.72 193.71 351.27 200.95 355.2 194.04 351.72"/><path d="M241.87,376.83c-1.52-.59-2.58-1.54-4.1-2.12l.35-1Z"/><path d="M164.83,339.06c-2.36-.28-6.9-3.48-8.87-3.71,1.29.77.95.32,1.35.36L155,334C158.38,335.22,161.3,337.21,164.83,339.06Z"/><path d="M255.9,385.05c4.83,2.61,6.3,2.17,11.57,5.87,1.07.95-1.74-.41-.11.81a7.18,7.18,0,0,0,3.2,1.4l-.51-.68c1,1.35,5,4.29,2.23,4-6.79-4.29-11.23-4-16.06-8l-.39-1.48-3.36-1.63c-.17-.22.06-.4-1.07-.95-2.47-.9,1.4,1.4.95,1.76l-6.57-3c-.73-.49.79.1.62-.13-2.69-2.17-5.34-1.86-7.41-4.15l4.16,1.71c-4.6-2.79-7.85-5.23-10.94-7.44C241.41,378.63,248,379.18,255.9,385.05Z"/><line class="cls-1" x1="605.99" y1="242.95" x2="325.42" y2="403.89"/><path d="M598.21,251.6c1.42-.83-4.25,1.76-1.29-.11-2.33.82-6.43,3.84-9.13,5.29-.65-.42,1.39-2.3-3.63,0-6.56,3.32-.1,1.69-5.76,5l4-2.07c-3.32,3.23-13,7.89-19.52,11.95-5.42,2.16-10.79,3.29-17.16,7.33.31-.3,1.79-1.44,1.29-1.57a19.89,19.89,0,0,0-4.58,2.61c-3,2.64,1.5.4.52,1.67a46.41,46.41,0,0,1-9.27,5.94L528,289.17c-2.39,3.56-8.6,5-15,9.39-1.81-.1-8.1,5.11-9.91,5-3.15,1.84-1.92-2-4.86-1.14-4.8,2,2.88-2.17-1.92-.14,4.68-3.14,2.86,1.39,9.22-2.65l-.5-.13c2.41-2,7.62-3.72,9-5.65,7.12-3.85.58,1.3,4.43,0,1.6-1.87,9.39-6.68,9.06-7.91L522,289.11c.86-.53,0-.36.36-.66,4.35-1.15,11.89-11,10.89-6.29-.61.6-2.59,1.61-3,2.27.69.57,4.22-1.94,7.06-3.48,2.47-2.4,5-5.54,9.82-7.71,1.67-.7,1,.27,2.67-.44,8.78-6.08,9.38-4.14,18.88-10.06,6.58-2.58,13.63-7.47,20.21-10.05-1.3-.12,3.85-2.6,5.13-3.23a27.09,27.09,0,0,0,7-3.2c-1.42.83-.38.62-1.28,1.35,5.26-3.43,6.83-3,7.48-2.57C603.21,247.85,603.36,249.11,598.21,251.6Z"/><path d="M486.3,314.05c.33-1.93-9.46,4.86-5.45.62a24,24,0,0,0-6.48,4.21c4.07-1.73-.81.72,1.56.13-11.82,7.66-23.48,14.35-34.87,20.7-9,3.86-15.93,9.07-23.43,14.66-5.19,2.48-2.52-.34-1.79-1.69l-6.26,3.55,5.82-4.44c-.08-.63-2.93,1-4.71,1.48L409,354.41c.71-3.55,12.52-7.11,18.08-11.21-7.07,4.27,1.56.13-1.2,2.34l2.29-1.21c-2,1.18-5.56,4.11-10.65,7.21a418.14,418.14,0,0,0,39.48-25c-.26.34-1.08,1.06.09.62,4.27-2.38,6-5.1,7.67-6.55l-1.64,1.45c2.94-1,6.78-4.25,9.88-6.18,3.81-1.38,6.49-2,12.1-5.8l.09.62,4.88-2.45c-1.13.76-.52.7-.22.66-.26.34-.56.38-1.42.79.13.93,3.16.59,6.1-.38a19.57,19.57,0,0,0-2.29,1.21c2.34-.9,10.11-4.63,6.84-1.73C492.83,312.35,492,310.56,486.3,314.05Z"/><path d="M511.38,295.1c-4.77,2.17,1-1.27-.33-1.23l4-2.38C515.52,292,511.5,294.36,511.38,295.1Z"/><path d="M389.79,370.48c-.66-.24-3.46,1.65-5.18,2.48-3.07,2.24-3.54,3.24-8.42,5.69,2.89-3.48-4.84.56-8.69,1.63,2.24-1.52,6.08-4.8,10.18-6.21-.21.65,3.25-1,5-1.83,2.16-2.14-3.21-.9,7-7.1,2-.87,6.52-3.9,6.65-3,1.47-.48,2.15-2.14,4-2.35l.91-.1L395,363.89a3.24,3.24,0,0,0-1.47.48c1.52-.17-6.34,5.14-1.63,3.66l8.81-5.11c2.33-.89-.42,1.31-3.54,3.25C392.24,368.3,392.55,368.27,389.79,370.48Z"/><polygon points="410.8 356.09 411.4 356.03 403.76 360.68 410.8 356.09"/><path d="M361.13,387.31c1.38-1.11,2.85-1.59,4.23-2.69l.74.86Z"/><path d="M438.62,335.57c1.54-2.06,7-4.58,8.31-6.3-1.42.79-.82.72-1.07,1.06l2.89-1.27C445.73,331.61,442.28,333.27,438.62,335.57Z"/><path d="M345.76,396c-5.09,3.11-5.47,4.73-11.82,7.66-1.47.48,1.33-1.41-.7-.55a7.82,7.82,0,0,0-3.06,2.24l.91-.1c-1.82.2-6.74,2.34-4.93-.07,7.73-4,9.86-8.38,16.3-10.69l1.61.44,3.36-2.27c.3,0,.35.27,1.47-.49,2.2-1.82-2.07.56-2.16-.06l6.42-4.52c.87-.42-.51.69-.21.65,3.5-1.34,4.66-4,7.94-4.69l-3.88,3c5.14-2.8,9.2-4.52,12.95-6.21C359.69,385.9,355.61,391.73,345.76,396Z"/><line class="cls-1" x1="586.24" y1="229.64" x2="335.88" y2="373.24"/><path d="M579.3,237.36c1.26-.75-3.8,1.56-1.16-.11-2.07.74-5.73,3.43-8.14,4.73-.59-.38,1.24-2.06-3.24,0-5.86,3-.09,1.5-5.14,4.47l3.56-1.85c-3,2.89-11.58,7.05-17.42,10.66-4.83,1.94-9.63,2.94-15.31,6.55.28-.27,1.6-1.28,1.15-1.4a17.8,17.8,0,0,0-4.08,2.32c-2.7,2.36,1.33.36.46,1.49a41.41,41.41,0,0,1-8.28,5.31l-5.1,1.38c-2.13,3.18-7.67,4.44-13.41,8.38-1.61-.09-7.23,4.56-8.84,4.47-2.82,1.64-1.72-1.75-4.34-1-4.28,1.81,2.57-1.94-1.71-.13,4.18-2.79,2.55,1.25,8.23-2.36l-.45-.12c2.15-1.82,6.8-3.31,8-5,6.36-3.43.52,1.16,3.95,0,1.43-1.66,8.38-6,8.09-7.06l-4.86,2.81c.78-.48.05-.33.33-.6,3.88-1,10.61-9.8,9.72-5.6-.55.53-2.32,1.43-2.65,2,.62.51,3.77-1.73,6.31-3.1,2.19-2.15,4.5-4.95,8.75-6.89,1.5-.62.89.24,2.39-.39,7.83-5.42,8.37-3.69,16.85-9,5.86-2.3,12.16-6.66,18-9-1.15-.1,3.44-2.32,4.59-2.87a24.42,24.42,0,0,0,6.2-2.86c-1.26.74-.34.56-1.14,1.21,4.7-3.06,6.09-2.68,6.68-2.3C583.75,234,583.89,235.14,579.3,237.36Z"/><path d="M479.43,293.08c.3-1.73-8.43,4.33-4.86.55a21.08,21.08,0,0,0-5.78,3.76c3.63-1.55-.72.64,1.4.12-10.55,6.83-21,12.8-31.12,18.46-8,3.45-14.21,8.1-20.91,13.09-4.63,2.21-2.24-.31-1.59-1.51L411,330.72l5.2-4c-.08-.55-2.62.86-4.21,1.33l-1.5,1c.64-3.17,11.17-6.34,16.14-10-6.32,3.81,1.39.12-1.08,2.09l2.05-1.08c-1.77,1-5,3.66-9.51,6.43a371.13,371.13,0,0,0,35.23-22.31c-.23.31-1,.95.08.55,3.81-2.12,5.38-4.55,6.84-5.84l-1.46,1.29c2.63-.86,6.05-3.79,8.82-5.51a37.65,37.65,0,0,0,10.79-5.17l.08.55,4.36-2.18c-1,.67-.47.61-.19.58-.24.31-.5.34-1.28.71.12.83,2.83.52,5.45-.34a17.69,17.69,0,0,0-2,1.08c2.08-.81,9-4.13,6.1-1.55C485.26,291.56,484.48,290,479.43,293.08Z"/><path d="M501.81,276.17c-4.25,1.94.88-1.13-.29-1.1l3.6-2.12C505.51,273.39,501.92,275.51,501.81,276.17Z"/><path d="M393.32,343.43c-.58-.22-3.09,1.48-4.62,2.21-2.74,2-3.16,2.9-7.51,5.08,2.57-3.11-4.33.5-7.76,1.45,2-1.35,5.43-4.28,9.09-5.54-.19.59,2.89-.89,4.43-1.63,1.92-1.91-2.86-.8,6.23-6.34,1.81-.77,5.81-3.48,5.93-2.65,1.31-.43,1.92-1.9,3.54-2.09l.82-.09L398,337.55a2.84,2.84,0,0,0-1.31.43c1.35-.15-5.65,4.59-1.45,3.26l7.86-4.55c2.08-.8-.38,1.17-3.16,2.89C395.51,341.49,395.78,341.46,393.32,343.43Z"/><polygon points="412.07 330.6 412.6 330.54 405.79 334.69 412.07 330.6"/><path d="M367.75,358.45c1.23-1,2.54-1.42,3.77-2.4l.66.77Z"/><path d="M436.89,312.28c1.38-1.84,6.27-4.09,7.42-5.62-1.27.7-.73.64-1,.95l2.58-1.14C443.24,308.75,440.16,310.22,436.89,312.28Z"/><path d="M354,366.2c-4.55,2.77-4.89,4.22-10.56,6.84-1.31.43,1.2-1.26-.62-.49a6.84,6.84,0,0,0-2.73,2l.82-.1c-1.63.19-6,2.1-4.41-.06,6.9-3.6,8.8-7.47,14.55-9.54l1.44.4,3-2c.27,0,.31.25,1.31-.43,2-1.63-1.85.49-1.93-.06l5.73-4c.77-.37-.46.61-.19.58,3.12-1.2,4.15-3.57,7.09-4.18l-3.47,2.64c4.59-2.49,8.21-4,11.56-5.54C366.47,357.19,362.82,362.39,354,366.2Z"/><polygon class="cls-4" points="177.12 191.2 307.51 266.53 437.82 191.25 307.2 115.84 177.12 191.2"/><polygon class="cls-5" points="153.9 177.69 177.12 191.2 307.2 115.84 437.82 191.25 461.4 177.73 307.35 88.79 153.9 177.69"/><ellipse class="cls-5" cx="291.55" cy="165.96" rx="20.12" ry="4.79"/><ellipse class="cls-5" cx="340.55" cy="191.19" rx="20.12" ry="4.79"/><ellipse class="cls-5" cx="214.8" cy="195.97" rx="20.12" ry="4.79"/><ellipse class="cls-5" cx="280.49" cy="223.85" rx="20.12" ry="4.79"/><ellipse class="cls-5" cx="387.99" cy="191.19" rx="20.12" ry="4.79"/><ellipse class="cls-6" cx="315.98" cy="140.62" rx="8.29" ry="1.97"/><ellipse class="cls-6" cx="275.23" cy="195.97" rx="8.29" ry="1.97"/><ellipse class="cls-6" cx="339.17" cy="223.34" rx="8.29" ry="1.97"/></g></g></svg>